<svg width="1200" height="720" viewBox="0 0 1200 720" fill="none" xmlns="http://www.w3.org/2000/svg">
  <rect width="1200" height="720" rx="40" fill="#FFFFFF"/>
  <rect x="78" y="82" width="1044" height="556" rx="52" fill="#FFFFFF" stroke="#000000" stroke-width="5"/>
  <path d="M118 138H1082" stroke="#000000" stroke-width="2" stroke-dasharray="14 12"/>
  <rect x="118" y="178" width="490" height="330" rx="42" fill="#FFFFFF" stroke="#000000" stroke-width="4"/>
  <rect x="154" y="218" width="148" height="148" rx="36" fill="#FFFFFF" stroke="#000000" stroke-width="4"/>
  <rect x="332" y="230" width="248" height="24" rx="12" fill="#000000"/>
  <rect x="332" y="280" width="218" height="16" rx="8" fill="#000000" fill-opacity="0.32"/>
  <rect x="332" y="318" width="176" height="16" rx="8" fill="#000000" fill-opacity="0.2"/>
  <rect x="332" y="394" width="110" height="90" rx="28" fill="#FFFFFF" stroke="#000000" stroke-width="3"/>
  <rect x="468" y="394" width="110" height="90" rx="28" fill="#000000" fill-opacity="0.08"/>
  <circle cx="906" cy="332" r="150" stroke="#000000" stroke-opacity="0.24" stroke-width="3"/>
  <circle cx="906" cy="332" r="102" stroke="#000000" stroke-opacity="0.16" stroke-width="2" stroke-dasharray="12 10"/>
  <path d="M778 428L842 354L928 406L1014 264L1068 320" stroke="#000000" stroke-width="10" stroke-linecap="round" stroke-linejoin="round"/>
  <g fill="#FFFFFF" stroke="#000000" stroke-width="4">
    <circle cx="778" cy="428" r="12"/>
    <circle cx="842" cy="354" r="12"/>
    <circle cx="928" cy="406" r="12"/>
    <circle cx="1014" cy="264" r="12"/>
    <circle cx="1068" cy="320" r="12"/>
  </g>
  <path d="M936 108L952 142L990 148L962 172L970 210L936 190L902 210L910 172L882 148L920 142L936 108Z" fill="#FFFFFF" stroke="#000000" stroke-width="4"/>
  <rect x="746" y="558" width="260" height="28" rx="14" fill="#000000" fill-opacity="0.12"/>
  <rect x="746" y="606" width="338" height="18" rx="9" fill="#000000" fill-opacity="0.22"/>
</svg>
